<svg width="103" height="53" viewBox="0 0 103 53" fill="none" xmlns="http://www.w3.org/2000/svg">
<line x1="3.25" x2="3.25" y2="41" stroke="#E5E6E7" stroke-width="0.5"/>
<line x1="19.25" x2="19.25" y2="41" stroke="#E5E6E7" stroke-width="0.5"/>
<line x1="35.25" x2="35.25" y2="41" stroke="#E5E6E7" stroke-width="0.5"/>
<line x1="51.25" x2="51.25" y2="41" stroke="#E5E6E7" stroke-width="0.5"/>
<line x1="67.25" x2="67.25" y2="41" stroke="#E5E6E7" stroke-width="0.5"/>
<line x1="83.25" x2="83.25" y2="41" stroke="#E5E6E7" stroke-width="0.5"/>
<line x1="99.25" x2="99.25" y2="41" stroke="#E5E6E7" stroke-width="0.5"/>
<line x1="3" y1="40.75" x2="100" y2="40.75" stroke="#E5E6E7" stroke-width="0.5"/>
<rect y="6" width="7" height="42" rx="3.5" fill="#E5E6E7"/>
<rect y="6" width="7" height="32" rx="3.5" fill="#05B436"/>
<rect x="16" y="30" width="7" height="21" rx="3.5" fill="#E5E6E7"/>
<rect x="32" y="15" width="7" height="33" rx="3.5" fill="#E5E6E7"/>
<rect x="48" y="23" width="7" height="25" rx="3.5" fill="#E5E6E7"/>
<rect x="64" y="21" width="7" height="32" rx="3.5" fill="#E5E6E7"/>
<rect x="80" y="15" width="7" height="32" rx="3.5" fill="#E5E6E7"/>
<rect x="96" y="21" width="7" height="24" rx="3.5" fill="#E5E6E7"/>
</svg>
